<svg width="400" height="400" viewBox="0 0 400 400" fill="none" xmlns="http://www.w3.org/2000/svg">
<rect width="400" height="400" rx="200" fill="white"/>
<path fill-rule="evenodd" clip-rule="evenodd" d="M244.601 261.085C244.601 265.627 243.255 270.066 240.732 273.842C238.209 277.617 234.623 280.56 230.427 282.298C226.232 284.036 221.615 284.491 217.161 283.605C212.707 282.719 208.616 280.532 205.405 277.321C202.194 274.11 200.007 270.019 199.121 265.565C198.235 261.111 198.69 256.494 200.427 252.299C202.165 248.103 205.108 244.517 208.884 241.995C212.66 239.472 217.099 238.125 221.641 238.125C224.656 238.124 227.642 238.717 230.429 239.871C233.215 241.024 235.746 242.715 237.879 244.848C240.011 246.98 241.702 249.511 242.856 252.298C244.009 255.084 244.602 258.07 244.601 261.085Z" fill="#002856"/>
<path d="M219.023 335C276.824 335 337.874 289.458 337.874 216.144C337.874 153.66 288.442 97.2879 218.589 97.3116C214.419 97.1619 210.244 97.4528 206.135 98.1792C219.22 100.317 230.271 107.486 234.98 114.909C258.248 115.997 330.183 145.977 320.221 231.746C286.51 217.848 251.725 201.71 218.471 187.386C189.523 198.918 137.228 220.277 132.109 222.462C132.962 227.653 134.102 232.793 135.525 237.858C159.101 228.243 218.597 204.841 218.597 204.841C218.597 204.841 300.21 239.365 316.893 246.29C305.574 289.206 264.424 319.817 217.943 318.515C175.247 317.356 155.788 297.401 150.898 292.574C150.472 296.462 157.011 302.914 157.066 317.601C172.021 325.677 191.614 335 219.023 335Z" fill="#1B355E"/>
<path d="M62 162.197C67.0086 159.042 71.544 152.977 77.3572 148.883C79.8024 147.164 83.1704 146.115 85.9074 144.608C92.1386 141.177 97.9833 138.117 103.86 136.058C107.425 134.804 111.235 134.804 114.981 133.487C117.789 132.501 120.092 130.158 122.672 129.212C136.42 124.156 149.277 132.714 157.732 136.91C155.713 142.297 149.056 143.086 143.195 144.608C144.662 141.232 148.859 140.578 151.745 138.622C148.993 132.943 143.148 132.493 137.209 131.775C132.649 136.91 125.259 139.189 123.523 147.179C126.868 145.602 132.05 146.343 134.637 148.031C131.766 150.011 125.251 148.331 120.952 148.883C115.267 154.577 111.146 161.64 108.987 169.391C113.932 167.64 120.155 165.045 126.087 166.827C120.952 169.249 115.044 169.485 110.698 171.962C103.181 176.261 103.536 183.399 103.86 195.979C109.129 191.83 113.932 187.232 124.367 188.281C114.816 193.802 102.345 197.904 100.429 211.376C99.3873 218.703 101.438 226.243 102.14 235.33C104.017 234.951 105.193 232.545 106.415 231.055C109.783 226.922 112.781 223.167 117.529 220.801C120.124 219.507 123.318 216.7 126.931 219.089C121.236 224.193 111.369 229.517 106.423 236.197C103.315 240.386 103.67 245.576 104.711 252.453C106.21 262.439 108.742 269.175 111.55 276.408C117.213 267.755 119.935 256.216 133.777 255.821C134.164 258.464 131.009 258.685 129.502 260.096C127.712 261.769 126.134 264.095 124.367 266.091C120.928 269.964 116.811 274.215 114.965 278.916C113.033 283.838 115.462 294.549 115.817 296.883C116.824 303.527 118.252 310.1 120.092 316.563C128.958 313.037 142.414 308.675 153.22 315.167C154.664 311.554 151.193 304.179 149.986 301.166C142.304 281.882 139.149 259.41 132.886 238.713C127.53 220.998 122.459 192.911 126.899 172.837C129.013 163.294 132.373 152.488 138.873 148.031C138.928 151.029 133.982 155.919 133.746 161.716C133.58 165.754 134.803 168.539 136.309 171.97C142.288 169.675 147.707 166.236 155.973 168.547C151.879 171.007 148.306 173.997 147.423 179.668C160.185 178.879 167.489 182.492 172.222 188.226C173.973 190.348 174.225 194.165 177.349 195.064C176.844 191.42 177.964 189.409 178.208 186.514C178.729 183.044 183.083 183.407 184.195 180.528C182.332 178.546 179.991 177.077 177.396 176.261C177.53 173.255 182.633 175.219 182.531 171.986C180.259 169.335 173.72 168.594 170.557 169.414C174.407 166.709 180.283 166.031 186.806 165.999C183.422 158.253 176.71 153.86 167.994 151.454C179.455 145.862 192.619 161.953 197.92 170.274C201.863 176.505 204.94 182.421 202.195 189.945C203.181 192.383 204.971 188.549 205.618 187.382C209.909 179.628 211.068 158.356 204.758 153.166C206.549 150.879 208.844 155.296 211.605 154.878C208.97 146.391 202.573 141.666 191.097 142.045C191.886 138.432 198.906 139.623 203.07 140.333C207.235 141.043 211.628 143.938 214.184 144.608C208.789 134.22 193.786 127.595 178.271 132.635C179.999 129.228 185.836 129.937 186.822 125.789C176.749 122.815 167.962 127.832 166.314 136.042C164.208 135.924 162.197 135.908 161.187 136.894C159.373 135.396 158.371 133.621 158.623 131.759C159.018 128.731 169.035 124.18 176.576 123.209C185.252 122.089 189.149 124.684 194.536 126.625C197.825 127.816 201.69 128.202 204.79 129.196C223.633 135.332 242.792 146.832 249.26 157.425C251.555 151.478 249.355 147.227 247.548 143.741C241.238 131.61 228.035 123.493 215.911 118.075C226.047 115.346 233.019 123.194 238.998 127.484C240.15 121.514 234.1 116.868 229.588 112.94C223.594 107.718 216.661 102.394 207.361 101.819C203.859 101.416 207.361 103.972 207.361 105.242C202.274 101.014 193.779 93.5605 183.414 99.2552C183.32 102.489 188.415 100.525 188.549 103.53C182.917 99.902 172.395 98.9476 167.174 103.53C167.284 98.9634 169.737 86.7694 162.039 85.5626C162.536 90.0585 160.532 92.0382 161.187 96.6839C159.294 81.1851 151.359 71.728 138.952 66.7116C138.1 66.7116 136.585 65 135.694 65C141.089 70.4345 147.249 77.5174 148.362 87.2426C143.101 80.5304 139.685 72.0041 126.978 72.6982C128.485 74.9067 131.127 75.9715 132.113 78.6926C116.638 76.3816 105.011 84.411 98.7642 94.089C102.708 91.2652 107.732 90.0585 114.153 90.6658C127.002 91.8726 143.519 98.853 146.65 107.774C142.706 107.04 139.551 105.124 135.528 105.21C134.086 105.396 132.657 105.68 131.253 106.062C131.096 106.228 131.451 107.711 131.253 107.774C128.706 108.626 124.73 106.046 124.415 109.485C122.837 107.845 128.8 106.504 129.55 104.351C121.283 98.4271 111.755 104.958 107.314 110.345C105.106 110.14 108.49 108.87 107.314 106.922C90.8845 109.951 79.6288 118.083 73.934 131.775C81.2379 128.47 87.8477 120.11 97.8808 122.366C83.7698 130.206 70.0375 138.401 63.6722 154.018C62 157.07 62 159.634 62 162.197ZM141.484 111.244C143.503 111.244 144 109.769 146.618 110.392C147.675 117.026 155.192 117.207 156.872 123.225C155.737 123.225 156.084 124.724 155.161 124.929C152.637 118.335 146.973 114.88 141.484 111.244ZM161.991 107.821C163.569 104.871 170.613 104.209 173.105 106.969C168.633 107.624 166.669 110.795 162.851 112.104C163.569 109.682 161.66 109.888 162.007 107.821H161.991Z" fill="#1B355E"/>
<path d="M244.601 261.085C244.601 265.627 243.255 270.066 240.732 273.842C238.209 277.617 234.623 280.56 230.427 282.298C226.232 284.036 221.615 284.491 217.161 283.605C212.707 282.719 208.616 280.532 205.405 277.321C202.194 274.11 200.007 270.019 199.121 265.565C198.235 261.111 198.69 256.494 200.427 252.299C202.165 248.103 205.108 244.517 208.884 241.995C212.66 239.472 217.099 238.125 221.641 238.125C224.656 238.124 227.642 238.717 230.429 239.871C233.215 241.024 235.746 242.715 237.879 244.848C240.011 246.98 241.702 249.511 242.856 252.298C244.009 255.084 244.602 258.07 244.601 261.085Z" fill="#1B355E"/>
</svg>
